<svg viewBox="0 0 401 351" fill="none" xmlns="http://www.w3.org/2000/svg">
<path d="M192.266 149.442C222.487 149.442 246.987 124.942 246.987 94.7209C246.987 64.4994 222.487 40 192.266 40C162.044 40 137.545 64.4994 137.545 94.7209C137.545 124.942 162.044 149.442 192.266 149.442Z" stroke="#16161C" stroke-miterlimit="10"/>
<path d="M228.817 107.446C223.544 122.562 209.154 133.429 192.266 133.429C175.378 133.429 160.987 122.562 155.714 107.446" stroke="#16161C" stroke-miterlimit="10"/>
<path d="M225.23 106.763C225.23 106.763 228.284 108.385 231.828 108.108" stroke="#16161C" stroke-miterlimit="10"/>
<path d="M159.002 106.763C159.002 106.763 155.948 108.385 152.404 108.108" stroke="#16161C" stroke-miterlimit="10"/>
<path d="M205.93 97.9021C210.777 97.9021 214.705 89.6242 214.705 79.4127C214.705 69.2013 210.777 60.9233 205.93 60.9233C201.084 60.9233 197.155 69.2013 197.155 79.4127C197.155 89.6242 201.084 97.9021 205.93 97.9021Z" fill="#16161C"/>
<path d="M178.602 97.9021C183.448 97.9021 187.377 89.6242 187.377 79.4127C187.377 69.2013 183.448 60.9233 178.602 60.9233C173.756 60.9233 169.827 69.2013 169.827 79.4127C169.827 89.6242 173.756 97.9021 178.602 97.9021Z" fill="#16161C"/>
<path d="M342.039 167.142H42.4932V232.516H342.039V167.142Z" fill="white" stroke="#16161C" stroke-miterlimit="10"/>
<path d="M253.072 177.069L258.025 196.904L272.244 182.215L266.629 201.878L286.293 196.263L271.604 210.483L291.417 215.436L271.604 220.411L286.293 234.609L266.629 228.993L272.244 248.657L258.025 233.968L253.072 253.802L248.097 233.968L233.878 248.657L239.514 228.993L219.851 234.609L234.54 220.411L214.705 215.436L234.54 210.483L219.851 196.263L239.514 201.878L233.878 182.215L248.097 196.904L253.072 177.069Z" fill="white" stroke="#16161C" stroke-miterlimit="10"/>
<path d="M322.226 233.968L287.66 224.702L253.072 215.436L262.338 250.024L271.604 284.611L288.557 261.553L305.637 278.612L316.248 268.001L299.189 250.942L322.226 233.968Z" fill="#16161C"/>
<path d="M253.072 177.069L258.025 196.904L272.244 182.215L266.629 201.878L286.293 196.263L271.604 210.483L291.417 215.436L271.604 220.411L286.293 234.609L266.629 228.993L272.244 248.657L258.025 233.968L253.072 253.802L248.097 233.968L233.878 248.657L239.514 228.993L219.851 234.609L234.54 220.411L214.705 215.436L234.54 210.483L219.851 196.263L239.514 201.878L233.878 182.215L248.097 196.904L253.072 177.069Z" stroke="#16161C" stroke-miterlimit="10"/>
<path d="M54.2999 109.794L57.5879 118.335L66.1067 121.623L57.5879 124.889L54.2999 133.429L51.012 124.91L42.4932 121.623L51.012 118.335L54.2999 109.794Z" fill="#16161C"/>
<path d="M348.55 118.228L351.838 126.746L360.357 130.034L351.838 133.322L348.55 141.841L345.262 133.322L336.743 130.034L345.262 126.746L348.55 118.228Z" fill="#16161C"/>
<path d="M34.8067 255.681L38.0947 264.221L46.6348 267.488L38.0947 270.776L34.8067 279.316L31.5401 270.776L23 267.488L31.5401 264.221L34.8067 255.681Z" fill="#16161C"/>
<path d="M366.569 260.976L369.857 269.516L378.398 272.783L369.857 276.071L366.569 284.611L363.303 276.071L354.763 272.783L363.303 269.516L366.569 260.976Z" fill="#16161C"/>
<path d="M194.123 287.365L197.39 295.905L205.93 299.193L197.39 302.46L194.123 311L190.835 302.481L182.295 299.193L190.835 295.905L194.123 287.365Z" fill="#16161C"/>
</svg>
